# This file uses centimeters as units for non-parametric coordinates.

mtllib orillas.mtl
g default
v -41.157760 -28.802196 -12.684894
v -41.294133 -28.802196 12.233612
v -41.157760 28.802196 -12.684894
v -41.294133 28.802196 12.233612
v 41.294133 28.802196 -12.233612
v 41.157760 28.802196 12.684894
v 41.294133 -28.802196 -12.233612
v 41.157760 -28.802196 12.684894
vt 0.028710 -1.860458
vt 0.971290 -1.860458
vt 0.028710 -0.917878
vt 0.971290 -0.917878
vt 0.028710 0.024702
vt 0.971290 0.024702
vt 0.028710 0.967282
vt 0.971290 0.967282
vt 0.028710 1.909862
vt 0.971290 1.909862
vt 1.913870 -1.860458
vt 1.913870 -0.917878
vt -0.913870 -1.860458
vt -0.913870 -0.917878
vn -0.999985 0.000000 -0.005473
vn -0.999985 0.000000 -0.005473
vn -0.999985 0.000000 -0.005473
vn -0.999985 0.000000 -0.005473
vn 0.000000 1.000000 0.000000
vn 0.000000 1.000000 0.000000
vn 0.000000 1.000000 0.000000
vn 0.000000 1.000000 0.000000
vn 0.999985 0.000000 0.005473
vn 0.999985 0.000000 0.005473
vn 0.999985 0.000000 0.005473
vn 0.999985 0.000000 0.005473
vn 0.000000 -1.000000 0.000000
vn 0.000000 -1.000000 0.000000
vn 0.000000 -1.000000 0.000000
vn 0.000000 -1.000000 0.000000
vn -0.005473 0.000000 0.999985
vn -0.005473 0.000000 0.999985
vn -0.005473 0.000000 0.999985
vn -0.005473 0.000000 0.999985
vn 0.005473 0.000000 -0.999985
vn 0.005473 0.000000 -0.999985
vn 0.005473 0.000000 -0.999985
vn 0.005473 0.000000 -0.999985
s off
g pCube1
usemtl lambert3SG
f 1/1/1 2/2/2 4/4/3 3/3/4
f 3/3/5 4/4/6 6/6/7 5/5/8
f 5/5/9 6/6/10 8/8/11 7/7/12
f 7/7/13 8/8/14 2/10/15 1/9/16
f 2/2/17 8/11/18 6/12/19 4/4/20
f 7/13/21 1/1/22 3/3/23 5/14/24
